{
    "asset": {
        "copyright": "2020 (c) Adobe Inc.",
        "generator": "Adobe Dimension - a39c749b7f1dd68e8fcb597e3575f0bb9d09bfc8",
        "version": "2.0"
    },
    "accessors": [
        {
            "bufferView": 0,
            "componentType": 5126,
            "count": 132,
            "type": "VEC3",
            "max": [
                -5.502442359924316,
                0.4745001196861267,
                0.7137402892112732
            ],
            "min": [
                -6.093409061431885,
                0.03431029990315437,
                0.7053402662277222
            ]
        },
        {
            "bufferView": 1,
            "componentType": 5126,
            "count": 132,
            "type": "VEC3"
        },
        {
            "bufferView": 2,
            "componentType": 5126,
            "count": 132,
            "type": "VEC2"
        },
        {
            "bufferView": 3,
            "componentType": 5125,
            "count": 474,
            "type": "SCALAR",
            "max": [
                131.0
            ],
            "min": [
                0.0
            ]
        },
        {
            "bufferView": 4,
            "componentType": 5126,
            "count": 90750,
            "type": "VEC3",
            "max": [
                0.045075077563524249,
                0.29277122020721438,
                0.044527318328619
            ],
            "min": [
                -0.045075077563524249,
                -0.000051939998229499909,
                -0.04462336748838425
            ]
        },
        {
            "bufferView": 5,
            "componentType": 5126,
            "count": 90750,
            "type": "VEC3"
        },
        {
            "bufferView": 6,
            "componentType": 5126,
            "count": 90750,
            "type": "VEC2"
        },
        {
            "bufferView": 7,
            "componentType": 5125,
            "count": 135984,
            "type": "SCALAR",
            "max": [
                90749.0
            ],
            "min": [
                0.0
            ]
        }
    ],
    "bufferViews": [
        {
            "buffer": 0,
            "byteOffset": 0,
            "byteLength": 1584,
            "target": 34962
        },
        {
            "buffer": 0,
            "byteOffset": 1584,
            "byteLength": 1584,
            "target": 34962
        },
        {
            "buffer": 0,
            "byteOffset": 3168,
            "byteLength": 1056,
            "target": 34962
        },
        {
            "buffer": 0,
            "byteOffset": 4224,
            "byteLength": 1896,
            "target": 34963
        },
        {
            "buffer": 0,
            "byteOffset": 6120,
            "byteLength": 1089000,
            "target": 34962
        },
        {
            "buffer": 0,
            "byteOffset": 1095120,
            "byteLength": 1089000,
            "target": 34962
        },
        {
            "buffer": 0,
            "byteOffset": 2184120,
            "byteLength": 726000,
            "target": 34962
        },
        {
            "buffer": 0,
            "byteOffset": 2910120,
            "byteLength": 543936,
            "target": 34963
        }
    ],
    "buffers": [
        {
            "byteLength": 3454056,
            "uri": "максифлоры_новые gggggg_binary.bin"
        }
    ],
    "cameras": [
        {
            "perspective": {
                "znear": 0.000010000000656873454,
                "yfov": 0.6024156808853149,
                "zfar": 2.0,
                "aspectRatio": 1.3333333730697632
            },
            "type": "perspective",
            "name": "render_camera"
        }
    ],
    "images": [
        {
            "name": "composited_baseColor_opacity",
            "uri": "максифлоры_новые gggggg_images\\composited_baseColor_opacity.png",
            "mimeType": "image/png"
        },
        {
            "name": "composited_roughness",
            "uri": "максифлоры_новые gggggg_images\\composited_roughness.png",
            "mimeType": "image/png"
        }
    ],
    "materials": [
        {
            "pbrMetallicRoughness": {
                "baseColorFactor": [
                    0.9734445810317993,
                    0.9734445810317993,
                    0.9734445810317993,
                    0.25
                ],
                "metallicFactor": 0.0,
                "roughnessFactor": 0.009999999776482582
            },
            "alphaMode": "BLEND",
            "name": "Matte",
            "doubleSided": true
        },
        {
            "pbrMetallicRoughness": {
                "baseColorTexture": {
                    "index": 0
                },
                "metallicFactor": 0.0,
                "metallicRoughnessTexture": {
                    "index": 1
                }
            },
            "alphaMode": "MASK",
            "name": "Matte",
            "doubleSided": true
        }
    ],
    "meshes": [
        {
            "name": "-D0-92-D0-B5-D0-BA-D1-82-D0-BE-D1-80-D0-BD-D1-8B-D0-B9 -D1-81-D0-BC-D0-B0-D1-80-D1-82--D0-BE-D0-B1-D1-8A-D0-B5-D0-BA-D1-82_0_0",
            "primitives": [
                {
                    "attributes": {
                        "NORMAL": 1,
                        "POSITION": 0,
                        "TEXCOORD_0": 2
                    },
                    "indices": 3,
                    "material": 0
                }
            ]
        },
        {
            "name": "Box",
            "primitives": [
                {
                    "attributes": {
                        "POSITION": 4,
                        "NORMAL": 5,
                        "TEXCOORD_0": 6
                    },
                    "indices": 7,
                    "material": 1
                }
            ]
        }
    ],
    "nodes": [
        {
            "translation": [
                0.5030481815338135,
                0.29999998211860659,
                0.5227299332618713
            ],
            "rotation": [
                -0.12059047073125839,
                0.379409521818161,
                0.04995020851492882,
                0.9159756302833557
            ],
            "scale": [
                1.0,
                1.0,
                0.9999999403953552
            ],
            "camera": 0,
            "name": "render_camera_n3d"
        },
        {
            "children": [
                2,
                3
            ],
            "translation": [
                0.056511763483285907,
                -2.326068448965657e-9,
                -0.06804759055376053
            ],
            "rotation": [
                3.2104988889614108e-8,
                -0.2756374478340149,
                -2.1797372795617777e-8,
                0.9612616896629334
            ],
            "scale": [
                1.0000001192092896,
                1.0,
                1.000000238418579
            ],
            "name": "55"
        },
        {
            "translation": [
                0.9214080572128296,
                0.07278981059789658,
                0.034530799835920337
            ],
            "rotation": [
                0.0006922170869074762,
                -0.00002863035842892714,
                0.0032462701201438905,
                0.9999945163726807
            ],
            "scale": [
                0.16092409193515778,
                0.14215873181819917,
                0.095310740172863
            ],
            "mesh": 0,
            "name": "Векторный смарт-объект_0_0"
        },
        {
            "translation": [
                -0.011877000331878662,
                0.000023953909476404079,
                0.0876612439751625
            ],
            "scale": [
                1.0759819746017457,
                0.46102890372276308,
                0.32529181241989138
            ],
            "mesh": 1,
            "name": "55"
        }
    ],
    "samplers": [
        {},
        {}
    ],
    "scenes": [
        {
            "nodes": [
                0,
                1
            ],
            "name": "scene"
        }
    ],
    "textures": [
        {
            "name": "composited_baseColor_opacity",
            "sampler": 0,
            "source": 0
        },
        {
            "name": "composited_roughness",
            "sampler": 1,
            "source": 1
        }
    ],
    "scene": 0
}